HIERARCHY
ROOT root
{
  OFFSET 0 93.2929 0
  CHANNELS 6 Xposition Yposition Zposition Zrotation Xrotation Yrotation
  JOINT torso_1
  {
    OFFSET 0 5.07867 -1.15138
    CHANNELS 6 Xposition Yposition Zposition Zrotation Xrotation Yrotation
    JOINT torso_2
    {
      OFFSET 0 5.61661 1.07143
      CHANNELS 6 Xposition Yposition Zposition Zrotation Xrotation Yrotation
      JOINT torso_3
      {
        OFFSET -1.02604e-17 5.98978 0.11501
        CHANNELS 6 Xposition Yposition Zposition Zrotation Xrotation Yrotation
        JOINT torso_4
        {
          OFFSET -1.10457e-17 6.50583 -0.443523
          CHANNELS 6 Xposition Yposition Zposition Zrotation Xrotation Yrotation
          JOINT torso_5
          {
            OFFSET -1.97295e-17 7.60548 -1.50593
            CHANNELS 6 Xposition Yposition Zposition Zrotation Xrotation Yrotation
            JOINT torso_6
            {
              OFFSET -2.53307e-17 9.49737 -0.914492
              CHANNELS 6 Xposition Yposition Zposition Zrotation Xrotation Yrotation
              JOINT torso_7
              {
                OFFSET -2.90401e-17 10.5513 1.57691
                CHANNELS 6 Xposition Yposition Zposition Zrotation Xrotation Yrotation
                JOINT neck_1
                {
                  OFFSET -1.29193e-17 4.78644 0.715339
                  CHANNELS 6 Xposition Yposition Zposition Zrotation Xrotation Yrotation
                  JOINT neck_2
                  {
                    OFFSET -1.8116e-17 4.82109 0.421791
                    CHANNELS 6 Xposition Yposition Zposition Zrotation Xrotation Yrotation
                    JOINT head
                    {
                      OFFSET -2.00958e-17 4.83041 0.765062
                      CHANNELS 6 Xposition Yposition Zposition Zrotation Xrotation Yrotation
                      End Site
                      {
                        OFFSET 0 0.1 0
                      }
                    }
                  }
                }
                JOINT l_shoulder
                {
                  OFFSET 1.23299 -7.60731 7.53374
                  CHANNELS 6 Xposition Yposition Zposition Zrotation Xrotation Yrotation
                  JOINT l_up_arm
                  {
                    OFFSET 12.9547 3.2495 -3.26872
                    CHANNELS 6 Xposition Yposition Zposition Zrotation Xrotation Yrotation
                    JOINT l_low_arm
                    {
                      OFFSET 29.2081 0.0598081 0.137039
                      CHANNELS 6 Xposition Yposition Zposition Zrotation Xrotation Yrotation
                      JOINT l_hand
                      {
                        OFFSET 24.234 0.0496219 0.113701
                        CHANNELS 6 Xposition Yposition Zposition Zrotation Xrotation Yrotation
                        End Site
                        {
                          OFFSET 0.1 0 0
                        }
                      }
                    }
                  }
                }
                JOINT r_shoulder
                {
                  OFFSET -1.23299 -7.60729 7.53365
                  CHANNELS 6 Xposition Yposition Zposition Zrotation Xrotation Yrotation
                  JOINT r_up_arm
                  {
                    OFFSET -12.9547 3.2495 -3.26872
                    CHANNELS 6 Xposition Yposition Zposition Zrotation Xrotation Yrotation
                    JOINT r_low_arm
                    {
                      OFFSET -29.2081 0.0598081 0.137039
                      CHANNELS 6 Xposition Yposition Zposition Zrotation Xrotation Yrotation
                      JOINT r_hand
                      {
                        OFFSET -24.234 0.0496218 0.113702
                        CHANNELS 6 Xposition Yposition Zposition Zrotation Xrotation Yrotation
                        End Site
                        {
                          OFFSET -0.1 0 0
                        }
                      }
                    }
                  }
                }
              }
            }
          }
        }
      }
    }
  }
  JOINT l_up_leg
  {
    OFFSET 9.23673 -4.20556 2.0327
    CHANNELS 6 Xposition Yposition Zposition Zrotation Xrotation Yrotation
    JOINT l_low_leg
    {
      OFFSET -0.852353 -38.7721 -0.655187
      CHANNELS 6 Xposition Yposition Zposition Zrotation Xrotation Yrotation
      JOINT l_foot
      {
        OFFSET -2.32622 -40.4017 -6.04875
        CHANNELS 6 Xposition Yposition Zposition Zrotation Xrotation Yrotation
        JOINT l_toes
        {
          OFFSET 0.779096 -9.8844 12.4959
          CHANNELS 6 Xposition Yposition Zposition Zrotation Xrotation Yrotation
          End Site
          {
            OFFSET 0 0 0.1
          }
        }
      }
    }
  }
  JOINT r_up_leg
  {
    OFFSET -9.23673 -4.20556 2.0327
    CHANNELS 6 Xposition Yposition Zposition Zrotation Xrotation Yrotation
    JOINT r_low_leg
    {
      OFFSET 0.852353 -38.7721 -0.655187
      CHANNELS 6 Xposition Yposition Zposition Zrotation Xrotation Yrotation
      JOINT r_foot
      {
        OFFSET 2.32622 -40.4017 -6.04875
        CHANNELS 6 Xposition Yposition Zposition Zrotation Xrotation Yrotation
        JOINT r_toes
        {
          OFFSET -0.779096 -9.8844 12.4959
          CHANNELS 6 Xposition Yposition Zposition Zrotation Xrotation Yrotation
          End Site
          {
            OFFSET 0 0 0.1
          }
        }
      }
    }
  }
}
MOTION
Frames: 4
Frame Time: 0.016667
5.3556 86.556 58.7558 9.70185 -22.2301 0.760167 0 5.07867 -1.15138 -1.16888 -7.41801 0.496575 0 5.61661 1.07143 -0.977563 -5.51076 0.0486786 -1.02604e-17 5.98978 0.11501 -0.719887 -2.28957 0.159961 -1.10457e-17 6.50583 -0.443523 -0.498735 2.11105 0.145254 -1.97295e-17 7.60548 -1.50593 -0.103138 4.70459 0.261539 -2.53307e-17 9.49737 -0.914492 0.175341 6.01618 -0.0171332 -2.90401e-17 10.5513 1.57691 -0.168616 0.77227 -0.211345 -1.29193e-17 4.78644 0.715339 0.171194 15.5895 1.0554 -1.8116e-17 4.82109 0.421791 -0.809904 -3.51788 0.577777 -2.00958e-17 4.83041 0.765062 -3.31473 0.291071 1.60288 1.23299 -7.60731 7.53374 21.6784 -7.89387 10.1903 12.9547 3.2495 -3.26872 -70.3089 -28.7544 -65.54 29.2081 0.0598081 0.137039 11.7805 -9.54863 -78.5778 24.234 0.0496219 0.113701 -1.26747 10.3975 5.14833 -1.23299 -7.60729 7.53365 -24.3326 -6.82565 -13.2861 -12.9547 3.2495 -3.26872 62.4138 -16.8674 72.4539 -29.2081 0.0598081 0.137039 -11.4244 -8.23297 72.063 -24.234 0.0496218 0.113702 -1.83582 -10.3274 -2.45406 9.23673 -4.20556 2.0327 0.29392 12.6253 -4.51486 -0.852353 -38.7721 -0.655187 -10.4296 34.6288 2.63213 -2.32622 -40.4017 -6.04875 -0.741425 -6.82974 16.3541 0.779096 -9.8844 12.4959 1.13375e-16 -7.89412e-16 6.69707e-18 -9.23673 -4.20556 2.0327 -18.0696 1.55111 26.7006 0.852353 -38.7721 -0.655187 12.9279 40.6008 -4.05306 2.32622 -40.4017 -6.04875 3.88793 -14.5905 -16.905 -0.779096 -9.8844 12.4959 -8.92979e-16 -5.49812e-16 -1.27285e-14 
5.43771 86.4383 59.0082 9.74388 -22.5131 1.10727 0 5.07867 -1.15138 -1.17991 -6.76439 0.449836 0 5.61661 1.07143 -0.997751 -5.02379 -0.0202083 -1.02604e-17 5.98978 0.11501 -0.735504 -2.20076 0.0941523 -1.10457e-17 6.50583 -0.443523 -0.504627 1.62863 0.0698299 -1.97295e-17 7.60548 -1.50593 -0.102035 3.78739 0.198847 -2.53307e-17 9.49737 -0.914492 0.17796 4.75099 -0.0654884 -2.90401e-17 10.5513 1.57691 -0.173322 0.86597 -0.194107 -1.29193e-17 4.78644 0.715339 -0.00255437 14.704 1.57976 -1.8116e-17 4.82109 0.421791 -0.941716 -3.16088 0.828525 -2.00958e-17 4.83041 0.765062 -3.11502 1.98712 1.10979 1.23299 -7.60731 7.53374 23.015 -6.73023 9.62907 12.9547 3.2495 -3.26872 -68.6076 -29.9083 -60.2926 29.2081 0.0598081 0.137039 11.9666 -10.7225 -84.2752 24.234 0.0496219 0.113701 -0.507666 8.28148 4.66002 -1.23299 -7.60729 7.53365 -24.801 -6.27545 -12.8967 -12.9547 3.2495 -3.26872 63.5104 -17.7112 70.4753 -29.2081 0.0598081 0.137039 -11.7136 -9.24934 77.1107 -24.234 0.0496218 0.113702 -1.48337 -10.2237 -1.94003 9.23673 -4.20556 2.0327 0.450427 12.4519 -4.55126 -0.852353 -38.7721 -0.655187 -10.8151 35.6149 2.83651 -2.32622 -40.4017 -6.04875 -1.09747 -6.51635 16.393 0.779096 -9.8844 12.4959 -1.55922e-15 -8.6318e-16 8.04652e-17 -9.23673 -4.20556 2.0327 -18.1006 1.83373 26.5954 0.852353 -38.7721 -0.655187 13.1576 41.1018 -4.19434 2.32622 -40.4017 -6.04875 4.43854 -14.5672 -16.931 -0.779096 -9.8844 12.4959 -6.97298e-16 -5.55927e-16 -1.27408e-14 
5.48292 86.362 59.3106 9.67916 -22.6305 1.33239 0 5.07867 -1.15138 -1.19046 -6.70688 0.394403 0 5.61661 1.07143 -1.00855 -4.97126 -0.0903753 -1.02604e-17 5.98978 0.11501 -0.735886 -2.22075 0.0213925 -1.10457e-17 6.50583 -0.443523 -0.49124 1.52126 -0.00910418 -1.97295e-17 7.60548 -1.50593 -0.0904207 3.59766 0.127486 -2.53307e-17 9.49737 -0.914492 0.182781 4.49822 -0.134422 -2.90401e-17 10.5513 1.57691 -0.177764 0.883674 -0.198726 -1.29193e-17 4.78644 0.715339 -0.00945606 13.9126 1.59524 -1.8116e-17 4.82109 0.421791 -1.04603 -3.0945 0.840896 -2.00958e-17 4.83041 0.765062 -3.0672 2.78535 1.43187 1.23299 -7.60731 7.53374 22.8535 -6.25108 9.15979 12.9547 3.2495 -3.26872 -67.2156 -29.8333 -56.8913 29.2081 0.0598081 0.137039 12.0273 -11.588 -88.4468 24.234 0.0496219 0.113701 0.709784 8.07012 2.27952 -1.23299 -7.60729 7.53365 -24.6928 -6.18515 -12.7331 -12.9547 3.2495 -3.26872 65.4177 -16.4328 70.2234 -29.2081 0.0598081 0.137039 -11.9402 -10.4962 83.1813 -24.234 0.0496218 0.113702 -1.33316 -7.55502 -2.3499 9.23673 -4.20556 2.0327 0.548481 12.4642 -4.73419 -0.852353 -38.7721 -0.655187 -11.0128 36.111 2.94351 -2.32622 -40.4017 -6.04875 -1.16523 -6.52463 16.4451 0.779096 -9.8844 12.4959 -8.77444e-16 -8.29644e-16 4.69297e-17 -9.23673 -4.20556 2.0327 -17.863 2.08203 26.726 0.852353 -38.7721 -0.655187 13.3064 41.4222 -4.28675 2.32622 -40.4017 -6.04875 3.7963 -14.2749 -16.9047 -0.779096 -9.8844 12.4959 -8.92979e-16 -5.49812e-16 -1.27285e-14 
5.49871 86.299 59.5985 9.59611 -22.6742 1.45762 0 5.07867 -1.15138 -1.12945 -7.23196 0.439579 0 5.61661 1.07143 -0.976579 -5.42445 -0.0327088 -1.02604e-17 5.98978 0.11501 -0.714807 -2.47487 0.0900181 -1.10457e-17 6.50583 -0.443523 -0.486548 1.58287 0.0680775 -1.97295e-17 7.60548 -1.50593 -0.0915259 3.89732 0.203563 -2.53307e-17 9.49737 -0.914492 0.187103 4.96846 -0.0705711 -2.90401e-17 10.5513 1.57691 -0.190455 0.894153 -0.232836 -1.29193e-17 4.78644 0.715339 0.0664563 14.3067 1.13631 -1.8116e-17 4.82109 0.421791 -0.956507 -3.38308 0.634743 -2.00958e-17 4.83041 0.765062 -3.14538 2.67573 1.72917 1.23299 -7.60731 7.53374 21.7623 -6.24949 9.46406 12.9547 3.2495 -3.26872 -70.1549 -25.2739 -53.4749 29.2081 0.0598081 0.137039 11.9478 -13.3783 -97.1116 24.234 0.0496219 0.113701 0.333293 11.9494 -0.207752 -1.23299 -7.60729 7.53365 -24.2654 -6.25697 -13.0789 -12.9547 3.2495 -3.26872 70.3364 -10.2023 69.9969 -29.2081 0.0598081 0.137039 -12.0277 -12.3468 92.1052 -24.234 0.0496218 0.113702 0.41645 0.411474 -3.57324 9.23673 -4.20556 2.0327 0.664477 12.4726 -4.69158 -0.852353 -38.7721 -0.655187 -11.1541 36.4619 3.02093 -2.32622 -40.4017 -6.04875 -1.1384 -6.56421 16.5111 0.779096 -9.8844 12.4959 -1.55301e-15 -8.59831e-16 7.71167e-17 -9.23673 -4.20556 2.0327 -17.6158 2.20628 26.8576 0.852353 -38.7721 -0.655187 13.4485 41.7251 -4.37562 2.32622 -40.4017 -6.04875 3.37248 -14.0695 -16.8963 -0.779096 -9.8844 12.4959 -5.96354e-16 -5.59082e-16 -1.27471e-14 
